<?xml version="1.0" encoding="utf-8"?>
<!-- Generator: Adobe Illustrator 25.0.0, SVG Export Plug-In . SVG Version: 6.00 Build 0)  -->
<svg version="1.1" xmlns="http://www.w3.org/2000/svg" xmlns:xlink="http://www.w3.org/1999/xlink" x="0px" y="0px"
	 viewBox="0 0 400 400" style="enable-background:new 0 0 400 400;" xml:space="preserve">
<style type="text/css">
	.st0{display:none;}
	.st1{display:inline;fill:#FFFFFF;}
	.st2{fill:#FFFFFF;}
</style>
<g id="White">
</g>
<g id="Layer_5" class="st0">
	<path class="st1" d="M350,399.8H50c-27.6,0-50-22.4-50-50v-300c0-27.6,22.4-50,50-50h300c27.6,0,50,22.4,50,50v300
		C400,377.4,377.6,399.8,350,399.8z M153.6,301.4c94.3,0,145.9-78.2,145.9-145.9c0-2.2,0-4.4-0.1-6.6c10-7.2,18.7-16.3,25.6-26.6
		c-9.2,4.1-19.1,6.8-29.5,8.1c10.6-6.3,18.7-16.4,22.6-28.4c-9.9,5.9-20.9,10.1-32.6,12.4c-9.4-10-22.7-16.2-37.4-16.2
		c-28.3,0-51.3,23-51.3,51.3c0,4,0.5,7.9,1.3,11.7c-42.6-2.1-80.4-22.6-105.7-53.6c-4.4,7.6-6.9,16.4-6.9,25.8
		c0,17.8,9.1,33.5,22.8,42.7c-8.4-0.3-16.3-2.6-23.2-6.4c0,0.2,0,0.4,0,0.7c0,24.8,17.7,45.6,41.1,50.3c-4.3,1.2-8.8,1.8-13.5,1.8
		c-3.3,0-6.5-0.3-9.6-0.9c6.5,20.4,25.5,35.2,47.9,35.6c-17.6,13.8-39.7,22-63.7,22c-4.1,0-8.2-0.2-12.2-0.7
		C97.7,292.9,124.7,301.4,153.6,301.4"/>
</g>
<g id="Layer_4">
	<g>
		<polygon class="st2" points="79.3,107.7 79.3,127.2 200,206.4 320.7,127.2 320.7,107.7 200,185.1 		"/>
		<path class="st2" d="M350,0H50C22.4,0,0,22.4,0,50v300c0,27.6,22.4,50,50,50h300c27.6,0,50-22.4,50-50V50C400,22.4,377.6,0,350,0z
			 M342,292.3c0,5.7-2.1,10.6-6.4,14.9c-4.3,4.3-9.2,6.4-14.9,6.4H79.3c-5.7,0-10.6-2.1-14.9-6.4c-4.3-4.3-6.4-9.2-6.4-14.9V107.7
			c0-5.7,2.1-10.6,6.4-14.9c4.3-4.3,9.2-6.4,14.9-6.4h241.4c5.7,0,10.6,2.1,14.9,6.4c4.3,4.3,6.4,9.2,6.4,14.9V292.3z"/>
	</g>
</g>
<g id="Layer_2" class="st0">
	<path id="path2" class="st1" d="M47.5,0.7C21.3,0.7,0,21.9,0,48.2v304.3C0,378.7,21.3,400,47.5,400h304.3
		c26.3,0,47.5-21.3,47.5-47.5V48.2c0-26.3-21.3-47.5-47.5-47.5H47.5z M152.1,76.7h47.5c42,0,76.4,34.5,76.1,76.6
		c-0.1,10.3,8.7,18.4,19,18.4h9.5c10.5,0,19,8.5,19,19v57c0,41.8-34.2,76.1-76.1,76.1h-95.1c-41.8,0-76.1-34.2-76.1-76.1v-47.5
		v-47.5C76.1,111,110.3,76.7,152.1,76.7z M152.1,133.8c-10.5,0-19,8.6-19,19c0,10.5,8.6,19,19,19h47.5c10.5,0,19-8.6,19-19
		c0-10.5-8.6-19-19-19H152.1z M152.1,228.9c-10.5,0-19,8.6-19,19s8.6,19,19,19h95.1c10.5,0,19-8.6,19-19s-8.6-19-19-19H152.1z"/>
</g>
<g id="Layer_3" class="st0">
	<path id="path2_1_" class="st1" d="M108.2,157.4c-3.5-2.6-6.9-3.9-10.4-3.9H82.3v93.3h15.6c3.5,0,6.9-1.3,10.4-3.9
		c3.5-2.6,5.2-6.5,5.2-11.7v-62.2C113.4,163.9,111.7,160,108.2,157.4L108.2,157.4z M361.5,0H40.2C18.6,0,1.1,17.5,1.1,39.1v321.8
		C1.1,382.5,18.6,400,40.2,400h321.3c21.6,0,39.1-17.5,39.2-39.1V39.1C400.6,17.5,383.1,0,361.5,0z M138.6,231.4
		c0,16.8-10.4,42.2-43.1,42.2H54.1V125.9h42.3c31.6,0,42.2,25.4,42.3,42.2L138.6,231.4L138.6,231.4z M228.4,152.3h-47.5v34.3h29.1
		V213h-29.1v34.3h47.5v26.4H173c-10,0.3-18.2-7.6-18.5-17.6V144.4c-0.2-10,7.6-18.2,17.6-18.5h56.4L228.4,152.3L228.4,152.3z
		 M320.9,255.2c-11.8,27.5-32.9,22-42.3,0l-34.4-129.3h29.1l26.5,101.5l26.4-101.5h29.1L320.9,255.2L320.9,255.2z"/>
</g>
</svg>
