<?xml version="1.0" encoding="utf-8"?>
<!-- Generator: Adobe Illustrator 25.0.0, SVG Export Plug-In . SVG Version: 6.00 Build 0)  -->
<svg version="1.1" xmlns="http://www.w3.org/2000/svg" xmlns:xlink="http://www.w3.org/1999/xlink" x="0px" y="0px"
	 viewBox="0 0 400 400" style="enable-background:new 0 0 400 400;" xml:space="preserve">
<style type="text/css">
	.st0{display:none;}
	.st1{display:inline;fill:#FFFFFF;}
	.st2{fill:#FFFFFF;}
</style>
<g id="White" class="st0">
	<path class="st1" d="M350,0H50C22.4,0,0,22.4,0,50v300c0,27.6,22.4,50,50,50h300c27.6,0,50-22.4,50-50V50C400,22.4,377.6,0,350,0z"
		/>
</g>
<g id="White_copy">
	<g>
		<path class="st2" d="M350,0H50C22.4,0,0,22.4,0,50v300c0,27.6,22.4,50,50,50h300c27.6,0,50-22.4,50-50V50C400,22.4,377.6,0,350,0z
			 M246.7,343.4c-7.5,1.4-10.1-3.1-10.1-7.1c0-4.8,0.2-20.7,0.2-40.4c0-13.7-4.7-22.7-10-27.3c32.9-3.6,67.4-16.1,67.4-72.7
			c0-16.1-5.7-29.2-15.2-39.5c1.5-3.7,6.6-18.7-1.5-39c0,0-12.4-4-40.5,15.1c-11.8-3.3-24.4-4.9-36.9-5c-12.5,0.1-25.2,1.7-36.9,5
			c-28.2-19.1-40.6-15.1-40.6-15.1c-8,20.3-3,35.3-1.4,39c-9.4,10.3-15.2,23.5-15.2,39.5c0,56.5,34.5,69.1,67.2,72.8
			c-4.2,3.7-8,10.2-9.4,19.7c-8.4,3.8-29.8,10.3-42.9-12.2c0,0-7.8-14.1-22.6-15.2c0,0-14.4-0.2-1,9c0,0,9.7,4.5,16.4,21.6
			c0,0,8.7,28.7,49.7,19.8c0.1,12.3,0.2,21.6,0.2,25.1c0,3.9-2.7,8.5-10.1,7.1C94.7,324,52.4,268.7,52.4,203.6
			c0-81.4,66.1-147.3,147.5-147.3l0,0c81.5,0,147.6,66,147.6,147.3C347.6,268.7,305.3,323.9,246.7,343.4z"/>
	</g>
</g>
<g id="Layer_2" class="st0">
</g>
</svg>
