<?xml version="1.0" encoding="UTF-8" standalone="no"?>
<!-- Generator: Adobe Illustrator 18.1.1, SVG Export Plug-In . SVG Version: 6.00 Build 0)  -->

<svg
   version="1.1"
   id="Capa_1"
   x="0px"
   y="0px"
   viewBox="0 0 16.172 16.172"
   style="enable-background:new 0 0 16.172 16.172;"
   xml:space="preserve"
   sodipodi:docname="php-programming-language-svgrepo-com.svg"
   inkscape:version="1.1.2 (0a00cf5339, 2022-02-04, custom)"
   xmlns:inkscape="http://www.inkscape.org/namespaces/inkscape"
   xmlns:sodipodi="http://sodipodi.sourceforge.net/DTD/sodipodi-0.dtd"
   xmlns="http://www.w3.org/2000/svg"
   xmlns:svg="http://www.w3.org/2000/svg"><defs
   id="defs45" /><sodipodi:namedview
   id="namedview43"
   pagecolor="#ffffff"
   bordercolor="#666666"
   borderopacity="1.0"
   inkscape:pageshadow="2"
   inkscape:pageopacity="0.0"
   inkscape:pagecheckerboard="0"
   showgrid="false"
   inkscape:zoom="44.954239"
   inkscape:cx="8.074878"
   inkscape:cy="8.074878"
   inkscape:window-width="1920"
   inkscape:window-height="1019"
   inkscape:window-x="3840"
   inkscape:window-y="32"
   inkscape:window-maximized="1"
   inkscape:current-layer="Capa_1" />
<g
   id="g10"
   style="fill:#ffffff">
	<g
   id="g8"
   style="fill:#ffffff">
		<path
   style="fill:#ffffff"
   d="M13.043,6.367c-0.237,0-0.398,0.022-0.483,0.047v1.523c0.101,0.022,0.223,0.03,0.391,0.03    c0.621,0,1.004-0.313,1.004-0.842C13.954,6.651,13.625,6.367,13.043,6.367z"
   id="path2" />
		<path
   style="fill:#ffffff"
   d="M15.14,0H1.033C0.463,0,0,0.462,0,1.032v14.108c0,0.568,0.462,1.031,1.033,1.031H15.14    c0.57,0,1.032-0.463,1.032-1.031V1.032C16.172,0.462,15.71,0,15.14,0z M4.904,8.32C4.506,8.695,3.916,8.863,3.227,8.863    c-0.153,0-0.291-0.008-0.398-0.023v1.846H1.673V5.594c0.36-0.061,0.865-0.107,1.578-0.107c0.719,0,1.233,0.139,1.577,0.414    C5.158,6.162,5.38,6.59,5.38,7.095S5.211,8.029,4.904,8.32z M10.382,10.686H9.218v-2.16H7.297v2.16H6.125V5.526h1.172v1.983h1.921    V5.526h1.164C10.382,5.526,10.382,10.686,10.382,10.686z M14.635,8.32c-0.397,0.375-0.987,0.543-1.677,0.543    c-0.152,0-0.291-0.008-0.398-0.023v1.846h-1.155V5.594c0.359-0.061,0.864-0.107,1.577-0.107c0.72,0,1.232,0.139,1.577,0.414    c0.33,0.261,0.552,0.689,0.552,1.194C15.11,7.6,14.942,8.029,14.635,8.32z"
   id="path4" />
		<path
   style="fill:#ffffff"
   d="M3.312,6.367c-0.238,0-0.398,0.022-0.483,0.047v1.523c0.1,0.022,0.222,0.03,0.391,0.03    c0.62,0,1.003-0.313,1.003-0.842C4.223,6.651,3.894,6.367,3.312,6.367z"
   id="path6" />
	</g>
</g>
<g
   id="g12">
</g>
<g
   id="g14">
</g>
<g
   id="g16">
</g>
<g
   id="g18">
</g>
<g
   id="g20">
</g>
<g
   id="g22">
</g>
<g
   id="g24">
</g>
<g
   id="g26">
</g>
<g
   id="g28">
</g>
<g
   id="g30">
</g>
<g
   id="g32">
</g>
<g
   id="g34">
</g>
<g
   id="g36">
</g>
<g
   id="g38">
</g>
<g
   id="g40">
</g>
</svg>
